<?xml version="1.0" encoding="UTF-8" standalone="no"?>
<!-- Created with Inkscape (http://www.inkscape.org/) -->

<svg
   width="512"
   height="512"
   viewBox="0 0 135.46666 135.46667"
   version="1.1"
   id="svg1"
   xml:space="preserve"
   xmlns="http://www.w3.org/2000/svg"
   xmlns:svg="http://www.w3.org/2000/svg"><defs
     id="defs1"><style
       id="style1">.cls-1{fill:#fff;}</style><style
       id="style1-2">.cls-1{fill:#fff;}</style></defs><g
     id="layer1"
     transform="matrix(0.17142857,0,0,0.15161291,-16.581512,-13.929331)"
     style="display:none"><rect
       style="display:inline;opacity:1;fill:#6ba439;fill-opacity:1;stroke-width:150.071"
       id="rect1"
       width="694.53125"
       height="785.30573"
       x="144.57097"
       y="145.97314" /></g><g
     id="layer6"
     transform="matrix(0.26458334,0,0,0.26458334,-0.48506526,-0.41269196)"
     style="display:none"><path
       d="m 93.418692,271.68607 a 40.384613,38.07691 0 0 0 -40.384614,38.07691 v 38.07692 a 40.384613,38.07691 0 0 0 40.384614,38.07696 H 133.8033 v 38.07688 H 53.034078 v 38.07692 H 133.8033 a 40.384613,38.07691 0 0 0 40.38461,-38.07692 V 385.91686 A 40.384613,38.07691 0 0 0 133.8033,347.8399 H 93.418692 v -38.07692 h 80.769218 v -38.07691 z"
       id="path1"
       style="display:inline;stroke-width:19.6069" /><path
       d="m 240.66252,271.68607 a 40.384617,31.730755 0 0 0 -40.38457,31.73076 v 95.19224 a 40.384617,31.730755 0 0 0 40.38457,31.73081 v 31.73078 h 40.38463 v -31.73078 a 40.384617,31.730755 0 0 0 40.38463,-31.73081 v -95.19224 a 40.384617,31.730755 0 0 0 -40.38463,-31.73076 h -40.38463 m 0,31.73076 h 40.38463 v 95.19224 h -40.38463 z"
       id="path1-7"
       style="display:inline;stroke-width:17.8986" /><path
       d="m 345.47965,271.68607 v 190.38459 h 40.3846 v -76.15384 h 60.57691 V 347.8399 H 385.86425 V 309.763 h 80.76924 v -38.07693 z"
       id="path1-2"
       style="display:inline;stroke-width:19.6069" /><path
       d="m 219.36224,56.262939 a 21.065804,21.065804 0 0 0 -21.0657,21.065789 V 119.4603 a 21.065804,21.065804 0 0 1 -21.0657,21.06587 h -10.53299 v 21.06568 h 10.53299 a 21.065804,21.065804 0 0 1 21.0657,21.06588 v 42.13144 a 21.065804,21.065804 0 0 0 21.0657,21.06598 h 21.06595 V 224.78917 H 219.36224 V 172.1248 a 21.065804,21.065804 0 0 0 -21.0657,-21.06568 21.065804,21.065804 0 0 0 21.0657,-21.06588 V 77.328728 h 21.06595 V 56.262939 m 63.19739,0 a 21.065804,21.065804 0 0 1 21.06595,21.065789 V 119.4603 a 21.065804,21.065804 0 0 0 21.06571,21.06587 h 10.53273 v 21.06568 h -10.53273 a 21.065804,21.065804 0 0 0 -21.06571,21.06588 v 42.13144 a 21.065804,21.065804 0 0 1 -21.06595,21.06598 h -21.06572 v -21.06598 h 21.06572 V 172.1248 a 21.065804,21.065804 0 0 1 21.06595,-21.06568 21.065804,21.065804 0 0 1 -21.06595,-21.06588 V 77.328728 H 282.55986 V 56.262939 Z"
       id="path2"
       style="display:inline;stroke-width:10.5329" /></g><g
     id="g16"
     transform="matrix(0.27050469,0,0,0.26458334,-0.49094907,-0.41269196)"
     style="display:inline"><path
       id="rect2"
       style="display:none;opacity:1;fill:#6ba439;fill-opacity:1;stroke-width:150.071"
       d="m 144.57097,145.97315 v 785.3058 h 694.53126 v -785.3058 z m 287.88984,41.36489 h 32.51395 v 36.76349 h -32.51395 v 91.90532 a 32.51302,36.76244 0 0 1 -32.51395,36.76349 32.51302,36.76244 0 0 1 32.51395,36.76009 v 91.90532 h 32.51395 v 36.76349 H 432.46081 A 32.51302,36.76244 0 0 1 399.94686,481.43575 V 407.91217 A 32.51302,36.76244 0 0 0 367.43592,371.14868 H 351.17895 V 334.3886 h 16.25697 a 32.51302,36.76244 0 0 0 32.51094,-36.76349 v -73.52358 a 32.51302,36.76244 0 0 1 32.51395,-36.76349 z m 97.53884,0 h 32.51395 a 32.51302,36.76244 0 0 1 32.51093,36.76349 v 73.52358 a 32.51302,36.76244 0 0 0 32.51395,36.76349 h 16.25698 v 36.76008 h -16.25698 a 32.51302,36.76244 0 0 0 -32.51395,36.76349 v 73.52358 A 32.51302,36.76244 0 0 1 562.5136,518.19924 H 529.99965 V 481.43575 H 562.5136 V 389.53043 A 32.51302,36.76244 0 0 1 595.02453,352.77034 32.51302,36.76244 0 0 1 562.5136,316.00685 V 224.10153 H 529.99965 Z M 238.07948,563.27934 H 362.7394 v 66.44764 H 238.07948 v 66.44764 h 62.32996 a 62.329724,66.44893 0 0 1 62.32996,66.45105 v 66.44764 a 62.329724,66.44893 0 0 1 -62.32996,66.45105 H 175.74952 v -66.45105 h 124.65992 v -66.44764 h -62.32996 a 62.329724,66.44893 0 0 1 -62.32996,-66.45105 v -66.44764 a 62.329724,66.44893 0 0 1 62.32996,-66.44764 z m 227.25702,0 h 62.32694 a 62.32973,55.374102 0 0 1 62.32996,55.3736 v 166.12081 a 62.32973,55.374102 0 0 1 -62.32996,55.3736 v 55.37701 H 465.3365 v -55.37701 a 62.32973,55.374102 0 0 1 -62.32996,-55.3736 V 618.65294 a 62.32973,55.374102 0 0 1 62.32996,-55.3736 z m 161.77393,0 h 186.98988 v 66.44764 H 689.44039 v 66.44764 h 93.49343 v 66.45105 h -93.49343 v 132.89869 h -62.32996 z m -161.77393,55.3736 v 166.12081 h 62.32694 V 618.65294 Z"
       transform="matrix(0.63373603,0,0,0.57302516,-59.483489,-51.086508)" /><path
       id="rect6"
       style="display:none;opacity:1;fill:#6ba439;fill-opacity:1;stroke-width:150.071"
       d="m 144.57097,145.97315 v 785.3058 h 694.53126 v -785.3058 z m 323.82822,33.86972 h 58.70959 c 3.66903,0 6.75025,2.90522 7.33719,6.7794 l 5.43206,42.7794 c 9.24645,4.0356 17.17097,9.52314 24.80296,15.81859 l 36.54428,-16.1424 c 3.22892,-1.45266 7.19172,1.6e-4 8.95295,3.5516 l 29.35479,55.8542 c 1.76124,3.55136 1.02813,7.90949 -1.76044,10.33099 l -30.96753,26.30979 c 0.58914,5.48846 1.02491,10.81557 1.02491,16.1424 0,5.32695 -0.43797,10.49263 -1.02491,15.6584 l 30.96753,26.7972 c 2.78858,2.42133 3.52167,6.77956 1.76044,10.33099 l -29.35178,55.8542 c -1.76124,3.55142 -5.72393,4.8432 -8.95294,3.5516 l -36.5473,-16.306 c -7.63199,6.45693 -15.55653,11.78528 -24.80296,15.9822 l -5.43206,42.77598 c -0.58705,3.87448 -3.66773,6.7794 -7.33719,6.7794 h -58.70959 c -3.66902,0 -6.75025,-2.90523 -7.3372,-6.7794 l -5.43205,-42.77598 c -9.24644,-4.0356 -17.17097,-9.52527 -24.80297,-15.9822 l -36.54428,16.306 c -3.2289,1.29097 -7.19171,-1.8e-4 -8.95294,-3.5516 l -29.3548,-55.8542 c -1.90822,-3.5513 -1.02813,-7.90948 1.76045,-10.33099 l 30.96753,-26.7972 c -0.58915,-5.16558 -1.02492,-10.33156 -1.02492,-15.6584 0,-5.32701 0.43798,-10.65388 1.02492,-16.1424 L 357.7354,298.81465 c -2.78857,-2.42139 -3.66868,-6.77956 -1.76045,-10.33099 l 29.3548,-55.8542 c 1.76122,-3.55142 5.72393,-5.00426 8.95294,-3.5516 l 36.54428,16.1424 c 7.63199,-6.29557 15.55653,-11.78274 24.80297,-15.81859 l 5.43205,-42.7794 c 0.58712,-3.87387 3.66774,-6.7794 7.3372,-6.7794 z m 29.35479,104.92558 a 51.369287,56.498354 0 0 0 -51.36939,56.49839 51.369287,56.498354 0 0 0 51.36939,56.49839 51.369287,56.498354 0 0 0 51.36939,-56.49839 51.369287,56.498354 0 0 0 -51.36939,-56.49839 z M 177.54011,563.05779 H 364.29184 V 629.3725 H 239.79169 v 66.31471 h 124.50015 v 66.31471 H 239.79169 v 66.31472 h 124.50015 v 66.31471 H 177.54011 Z m 232.33638,0 h 62.25158 l 31.12429,82.89339 31.12428,-82.89339 h 62.25158 l -62.25158,165.78678 62.25158,165.78678 h -62.25158 l -31.12428,-82.89339 -31.12429,82.89339 h -62.25158 l 62.25158,-165.78678 z m 216.74861,0 H 813.37684 V 629.3725 H 751.12525 V 894.63135 H 688.87669 V 629.3725 H 626.6251 Z"
       transform="matrix(0.63373603,0,0,0.57302516,-59.483489,-51.086508)" /><path
       id="rect12"
       style="display:none;opacity:1;fill:#6ba439;fill-opacity:1;stroke-width:90.4353"
       d="m 30.055243,32.559499 c 0,150.627271 0,301.254551 0,451.881821 148.103617,0 296.207227,0 444.310847,0 0,-151.25439 0,-302.50879 0,-453.763183 -148.10362,0 -296.20723,0 -444.310847,0 0,0.627119 0,1.254243 0,1.881362 z m 180.936587,15.8813 c 28.5741,0.0039 57.14841,-0.0078 85.72237,0.0058 3.18529,0.06186 6.06732,2.008866 7.41805,4.562776 0.81169,1.394102 1.0104,2.974327 1.20194,4.515376 2.60005,18.520906 5.20117,37.041687 7.80054,55.562669 7.50728,2.90858 14.68341,6.49717 21.45492,10.62306 2.09967,1.27298 4.27148,2.66061 6.34719,4.05132 3.37755,2.25806 6.65595,4.63382 9.899,7.04686 18.22898,-7.27653 36.4506,-14.56858 54.68512,-21.83347 2.80266,-1.03611 6.16091,-0.22941 8.25234,1.69065 1.451,1.25415 2.14539,2.99082 3.11454,4.5396 13.81424,23.77312 27.64146,47.54038 41.44758,71.31716 1.80921,3.35062 1.43635,7.71396 -1.35479,10.54188 -1.12783,1.06572 -2.45605,1.93921 -3.6728,2.91911 -14.33358,11.01181 -28.668,22.02272 -43.00107,33.03507 0.55838,4.74076 1.06982,9.48798 1.35412,14.24952 0.0569,0.95915 0.11148,2.04316 0.14844,3.05132 0.0467,1.13212 0.0744,2.36561 0.088,3.43551 0.009,0.84901 0.006,1.80117 0.001,2.58756 -0.0325,2.52596 -0.14005,5.07961 -0.31332,7.56151 -0.28405,4.19287 -0.76552,8.37207 -1.2834,12.54586 15.36531,12.02587 30.74254,24.0396 46.10015,36.07332 2.83773,2.36574 3.67039,6.25953 2.5858,9.53805 -0.52811,1.63495 -1.59591,3.06244 -2.41646,4.58167 -13.76777,23.68088 -27.52574,47.36718 -41.29963,71.04467 -1.49213,2.44199 -4.57599,4.006 -7.66455,3.80851 -1.49346,-0.0368 -2.84908,-0.63668 -4.1783,-1.18861 -17.53429,-7.07301 -35.06865,-14.14585 -52.60289,-21.21896 -2.99211,2.27473 -5.93949,4.47286 -9.05812,6.58847 -8.67846,5.94204 -18.05387,11.06536 -27.98649,15.10339 -0.35336,0.14318 -0.798,0.22584 -0.70226,0.66683 -2.67236,19.00754 -5.33166,38.01687 -8.01372,57.02312 -0.52121,3.09201 -2.92907,5.9832 -6.30231,6.89989 -1.75294,0.49117 -3.60706,0.24978 -5.41002,0.30778 -27.539,-0.004 -55.0782,0.008 -82.61707,-0.006 -3.20728,-0.06 -6.10117,-2.03602 -7.44412,-4.6124 -0.84527,-1.46815 -0.99686,-3.13515 -1.21458,-4.749 -2.58714,-18.42617 -5.1754,-36.8522 -7.76183,-55.27844 -7.56918,-2.93183 -14.80228,-6.5573 -21.60438,-10.75094 -5.61131,-3.42715 -10.91954,-7.23981 -16.08558,-11.19302 -18.15569,7.3175 -36.30243,14.65467 -54.46292,21.96149 -3.083737,1.08401 -6.821918,0.19357 -8.963426,-2.07482 -1.147784,-1.1749 -1.758079,-2.66342 -2.60731,-4.01113 C 76.709425,375.07278 62.812652,351.1886 48.939625,327.2933 c -1.868564,-3.42369 -1.148513,-7.89251 1.889839,-10.58173 3.027224,-2.42642 6.115166,-4.79237 9.165756,-7.19551 12.384527,-9.68938 24.770536,-19.37722 37.154137,-29.06756 -0.570793,-4.5524 -1.082788,-9.11305 -1.359065,-13.68881 -0.05738,-0.94784 -0.112615,-2.01862 -0.149448,-3.01551 -0.04513,-1.13285 -0.07233,-2.26619 -0.08697,-3.39969 -0.0023,-0.68908 -0.0098,-1.5244 -5.95e-4,-2.26903 0.01039,-1.66841 0.06677,-3.46754 0.15074,-5.18885 0.229812,-4.69648 0.698326,-9.47319 1.248441,-14.19221 0.0642,-0.55867 0.128065,-1.11737 0.191946,-1.67606 C 81.800189,225.22425 66.442991,213.443 51.105191,201.64177 c -3.209385,-2.61042 -4.073953,-7.15403 -2.247038,-10.65461 2.726168,-4.76533 5.516482,-9.50162 8.267372,-14.25576 11.685769,-20.09854 23.36285,-40.20649 35.054031,-60.29915 1.505148,-2.46426 4.602394,-4.16103 7.751244,-3.88447 1.78504,0.12131 3.33037,1.01648 4.95797,1.60168 17.24178,6.88655 34.48413,13.77193 51.72554,20.65922 5.09689,-3.80531 10.31674,-7.48509 15.80008,-10.82705 0.74061,-0.45183 1.60597,-0.97359 2.40386,-1.44041 6.18917,-3.64095 12.71066,-6.82136 19.49716,-9.45378 2.69118,-19.145807 5.36962,-38.293362 8.07063,-57.437858 0.5219,-3.088027 2.9229,-5.977953 6.29117,-6.897647 0.75043,-0.203854 1.53116,-0.307869 2.31462,-0.311136 z m 42.68559,134.363211 c -2.02071,0.0241 -4.0392,0.0907 -6.05299,0.24847 -2.25872,0.17855 -4.50404,0.47019 -6.73692,0.8255 -2.43483,0.42832 -4.85397,0.93753 -7.23078,1.58096 -2.65423,0.71355 -5.26343,1.56195 -7.80764,2.55057 -2.23238,0.84727 -4.39929,1.82879 -6.53129,2.86501 -2.00184,1.00016 -3.94798,2.0869 -5.85509,3.22823 -2.438,1.5181 -4.81604,3.11976 -7.05123,4.87665 -2.00552,1.52663 -3.88544,3.18232 -5.713,4.88044 -2.16422,2.06858 -4.22424,4.22944 -6.11377,6.50875 -1.56955,1.85057 -3.00669,3.78987 -4.38274,5.76162 -1.6793,2.47373 -3.2386,5.01645 -4.60297,7.64487 -1.2463,2.33103 -2.32514,4.73278 -3.31768,7.1605 -1.02103,2.60495 -1.93491,5.24533 -2.6625,7.93036 -0.72184,2.54092 -1.26822,5.12107 -1.71661,7.71219 -0.44846,2.77 -0.77584,5.55659 -0.91723,8.35383 -0.14257,2.35983 -0.13604,4.72485 -0.0627,7.08685 0.13175,2.95787 0.40083,5.9125 0.87767,8.84211 0.39258,2.58486 0.95619,5.14732 1.61758,7.68632 0.73724,2.70638 1.59189,5.38733 2.62737,8.01338 0.86389,2.26631 1.88933,4.47874 2.96405,6.66926 1.31545,2.54445 2.72592,5.05135 4.33089,7.45762 1.44523,2.23407 3.05265,4.38012 4.74147,6.46869 1.77096,2.1341 3.63527,4.20644 5.64815,6.15848 1.70576,1.69278 3.53069,3.2838 5.40206,4.826 1.95165,1.56037 3.97002,3.05517 6.07973,4.43788 2.30351,1.51867 4.70112,2.91895 7.1801,4.1919 2.03911,1.05738 4.14755,2.00134 6.28541,2.88416 2.33307,0.93027 4.70997,1.77572 7.13657,2.48554 2.60968,0.76781 5.2645,1.41041 7.95655,1.89446 2.26515,0.42613 4.55783,0.72508 6.85822,0.94611 2.25579,0.20926 4.52273,0.30433 6.79012,0.32867 2.2238,0.003 4.44544,-0.0933 6.66172,-0.25807 2.41809,-0.21668 4.82823,-0.51592 7.21253,-0.94191 2.66639,-0.48145 5.30764,-1.08057 7.89378,-1.84167 2.36321,-0.66141 4.66917,-1.47837 6.94413,-2.35492 2.10186,-0.83336 4.15426,-1.76318 6.17328,-2.7497 2.18936,-1.11958 4.3421,-2.3011 6.40615,-3.60186 2.36969,-1.47996 4.64388,-3.08256 6.81513,-4.79327 1.83936,-1.43712 3.58003,-2.97367 5.27383,-4.54966 2.1616,-2.07113 4.21994,-4.23283 6.10763,-6.51359 1.54069,-1.82195 2.95767,-3.72694 4.30953,-5.66703 1.45,-2.13066 2.81165,-4.31272 4.03173,-6.55856 1.34467,-2.44347 2.53791,-4.95316 3.59772,-7.50837 0.96939,-2.35044 1.81845,-4.74219 2.5459,-7.16295 0.80503,-2.69522 1.46467,-5.42502 1.96362,-8.18025 0.46046,-2.50164 0.78125,-5.02416 0.9919,-7.55283 0.20872,-2.75706 0.29088,-5.52227 0.19813,-8.28495 -0.061,-2.55978 -0.29219,-5.11463 -0.61075,-7.65805 -0.38899,-2.79455 -0.89377,-5.57676 -1.58824,-8.32321 -0.56983,-2.35447 -1.29639,-4.67524 -2.08233,-6.9777 -0.99384,-2.72764 -2.08852,-5.42756 -3.39088,-8.04823 -1.04973,-2.18835 -2.25064,-4.31445 -3.51198,-6.40871 -1.56667,-2.51237 -3.2486,-4.96861 -5.11569,-7.30857 -1.47104,-1.89258 -3.07383,-3.6984 -4.73142,-5.45964 -2.0451,-2.1158 -4.19273,-4.1542 -6.49642,-6.04204 -1.85623,-1.56378 -3.82692,-3.01237 -5.84335,-4.40339 -2.06794,-1.39702 -4.20767,-2.70895 -6.41776,-3.91523 -2.39494,-1.30027 -4.86178,-2.49293 -7.40644,-3.5362 -2.19487,-0.92538 -4.45616,-1.71585 -6.74003,-2.44251 -2.38262,-0.72322 -4.80034,-1.3569 -7.25179,-1.85953 -2.62832,-0.53529 -5.28681,-0.9529 -7.96676,-1.20736 -2.29412,-0.24147 -4.60391,-0.35383 -6.9131,-0.38053 -0.26683,-0.004 -0.53371,-0.0144 -0.80052,-0.0149 z" /><path
       d="m 397.44085,462.36 c -10.01575,30.72002 -37.5593,51.20002 -70.11075,51.20002 H 76.93381 c -42.567434,0 -75.1188726,-33.28002 -75.1188726,-76.80004 v -25.6 H 76.93381 307.29835 c 10.01574,30.72001 37.55933,51.20002 70.111,51.20002 h 20.0315 M 427.48862,1.5597806 H 152.0527 c -42.56744,0 -75.11889,33.2800164 -75.11889,76.8000434 V 359.95996 h 275.43591 v 25.6 c 0,15.36 10.01575,25.60002 25.03963,25.60002 h 25.03963 V 78.359824 c 0,-15.360004 10.01575,-25.60002 25.03964,-25.60002 15.02362,0 25.03937,10.240016 25.03937,25.60002 v 25.599996 h 50.07924 V 78.359824 c 0,-43.520027 -32.55143,-76.8000434 -75.11861,-76.8000434 z"
       id="path1-19"
       style="display:none;fill:#6ba439;stroke-width:25.3183" /><path
       d="m 252.26835,347.15945 a 90.096967,89.59994 0 0 1 -90.09703,-89.59986 90.096967,89.59994 0 0 1 90.09703,-89.59998 90.096967,89.59994 0 0 1 90.09688,89.59998 90.096967,89.59994 0 0 1 -90.09688,89.59986 m 191.26293,-64.76786 c 1.02945,-8.19231 1.80188,-16.38406 1.80188,-24.832 0,-8.44775 -0.76858,-16.89597 -1.80188,-25.60003 l 54.31561,-41.72792 c 4.89091,-3.84022 6.1781,-10.75197 3.08905,-16.38403 L 449.45191,85.271691 c -3.08902,-5.63218 -10.0394,-7.93593 -15.70262,-5.63218 L 369.65171,105.23948 C 356.2659,95.255611 342.36523,86.551651 326.14781,80.151651 L 316.62287,12.311778 C 315.59345,6.1677696 310.18698,1.5597806 303.75186,1.5597806 H 200.78392 c -6.43589,0 -11.84128,4.60849 -12.87101,10.7519974 l -9.52495,67.839873 c -16.21742,6.4004 -30.11808,15.10396 -43.50386,25.088029 L 70.786456,79.639711 c -5.66339,-2.30375 -12.61361,0 -15.70263,5.63216 L 3.5999309,173.84778 c -3.34687495,5.63217 -1.8018519,12.54403 3.089021,16.38408 l 54.3155341,41.72789 c -1.02945,8.70417 -1.80188,17.152 -1.80188,25.60003 0,8.44775 0.76858,16.63997 1.80188,24.832 L 6.6888689,324.88773 c -4.8909009,3.84025 -6.43589595,10.752 -3.089049,16.38397 l 51.4839261,88.576 c 3.08902,5.63214 10.03941,7.67947 15.70262,5.63214 l 64.097624,-25.85595 c 13.38581,10.23995 27.28647,18.94392 43.50386,25.34392 l 9.52495,67.83997 c 1.02945,6.14397 6.43592,10.752 12.87101,10.752 h 102.96843 c 6.4359,0 11.84137,-4.60753 12.87102,-10.752 l 9.52497,-67.83997 c 16.21736,-6.65583 30.11805,-15.10397 43.50387,-25.34392 l 64.09761,25.85595 c 5.66338,2.04833 12.61356,0 15.70261,-5.63214 l 51.4839,-88.576 c 3.08905,-5.63217 1.80188,-12.54403 -3.08902,-16.38397 z"
       id="path1-9-2"
       style="display:none;fill:#6ba439;stroke-width:25.6711" /><path
       id="path13"
       style="display:none;fill:#6ba439;stroke-width:25.3183"
       d="m 152.05224,1.5597806 c -42.56744,0 -75.117694,33.2807514 -75.117694,76.8007784 V 180.20821 a 252.08025,241.3585 0 0 1 25.927554,-20.49414 271.07722,259.54747 0 0 1 150.09021,-57.27734 181.75107,174.02064 0 0 1 19.13237,0 C 290.67743,49.804834 306.17143,1.5597806 306.17143,1.5597806 Z m 186.58785,0 L 296.2012,104.759 a 126.24222,120.87275 0 0 1 78.27745,44.11913 c 26.40705,32.37894 32.46938,76.49676 17.24492,124.09766 l -0.80809,2.32226 11.53291,0.0527 V 78.360559 c 0,-15.360004 10.01726,-25.601562 25.04115,-25.601562 15.02362,0 25.03923,10.241558 25.03923,25.601562 v 25.599611 h 50.07846 V 78.360559 c 0,-43.520027 -32.55051,-76.8007784 -75.11769,-76.8007784 z M 253.89603,121.53048 A 252.08025,241.3585 0 0 0 114.98914,174.80587 231.3318,221.49254 0 0 0 76.934546,210.50509 V 359.96016 H 175.4008 c 7.19397,-18.95986 14.59675,-38.45013 21.90813,-57.70117 a 504.9689,483.49102 0 0 0 -98.217901,18.57422 l 33.681751,-45.40625 h 74.64011 c 22.63461,-59.59788 42.84556,-113.13384 51.33357,-135.96679 2.15572,-5.93399 4.44462,-11.86671 6.60034,-17.92969 z m 34.89484,1.67578 -63.05371,152.09179 h 143.89106 c 0.94314,-2.58 1.88696,-5.28914 2.69553,-7.86914 13.47302,-41.53791 8.75662,-79.46446 -13.47384,-106.9414 a 109.13149,104.48979 0 0 0 -70.05904,-37.28125 z m 96.06301,166.92578 a 279.16103,267.28745 0 0 1 -45.33311,69.82812 h 12.84916 v 25.59961 c 0,15.36 10.01535,25.5996 25.03923,25.5996 h 25.03923 V 290.13204 Z m -21.4229,1.03125 c -61.30225,1.67699 -110.07413,5.28997 -148.20277,9.41796 l -24.61704,59.37891 h 122.21981 a 264.47543,253.22648 0 0 0 50.6,-68.79687 z M 1.8149374,411.15937 v 25.60157 c 0,43.52002 32.5521746,76.79882 75.1196086,76.79882 h 40.209484 l 21.42291,-57.79101 h -2.02118 A 137.15537,131.32174 0 0 1 27.06049,411.15937 Z M 117.14403,513.55976 h 210.18666 c 32.55145,0 60.09487,-20.4792 70.11062,-51.19922 h -20.03215 c -32.55167,0 -60.09488,-20.48116 -70.11062,-51.20117 h -28.43778 a 273.63709,261.99846 0 0 1 -128.1687,44.0918 l -20.07418,48.375 z M 50.057536,411.15937 c 24.956886,18.42064 59.122614,26.76486 96.592184,24.74219 2.97101,-7.87544 6.09858,-16.15448 9.34744,-24.74219 H 76.934546 Z m 119.327504,0 -9.93584,23.96875 a 255.98743,245.0995 0 0 0 80.41707,-23.96875 z" /><g
       id="g19"
       style="display:inline"><path
         id="path16"
         style="display:inline;fill:#0476b5;stroke-width:0.988994"
         d="m 250.59491,161.24532 a 92.671677,96.669426 0 0 0 -91.19156,96.65625 92.671677,96.669426 0 0 0 1.53594,17.52539 h 46.4736 c 17.12316,-45.08601 32.85942,-86.70261 43.18202,-114.18164 z m 21.48594,2.26563 -46.34369,111.7871 h 117.49737 a 92.671677,96.669426 0 0 0 1.51302,-17.39648 92.671677,96.669426 0 0 0 -72.6667,-94.39062 z m 66.72353,128.45312 c -49.91136,1.88243 -90.70018,5.05787 -123.57617,8.61718 l -15.40523,37.15821 a 92.671677,96.669426 0 0 0 52.25247,16.83203 92.671677,96.669426 0 0 0 86.72893,-62.60742 z m -141.49545,10.29492 a 504.9689,483.49102 0 0 0 -26.00015,3.04297 92.671677,96.669426 0 0 0 16.42346,22.17187 c 3.19271,-8.40797 6.39379,-16.83418 9.57669,-25.21484 z" /><path
         id="path14"
         style="display:inline;fill:#0476b5;stroke-width:25.6711"
         d="m 200.7839,1.5597806 c -6.43589,0 -11.84044,4.6084453 -12.87017,10.7519524 l -9.52511,67.839842 c -16.21742,6.4004 -30.1191,15.10382 -43.50488,25.087885 L 70.786972,79.639856 c -5.66339,-2.30375 -12.61423,6.52e-4 -15.70325,5.632812 L 3.5992239,173.84688 c -3.34687496,5.63217 -1.801803,12.54472 3.0890699,16.38477 l 36.2378272,27.83984 a 252.08025,241.3585 0 0 1 59.935979,-58.35742 271.07722,259.54747 0 0 1 150.09021,-57.27734 181.75107,174.02064 0 0 1 19.13237,0 C 289.96716,51.815427 304.9815,5.2524787 306.10265,1.768765 305.33908,1.6315649 304.55299,1.5597806 303.75099,1.5597806 Z M 321.10097,44.208216 296.2012,104.759 a 126.24222,120.87275 0 0 1 78.27745,44.11913 c 26.40705,32.37894 32.46938,76.49676 17.24492,124.09766 l -0.80809,2.32226 53.40442,0.2461 c 0.61076,-5.92571 1.0125,-11.88835 1.0125,-17.98438 0,-8.44775 -0.76818,-16.89555 -1.80148,-25.59961 l 54.31567,-41.72851 c 4.89091,-3.84022 6.17812,-10.75271 3.08907,-16.38477 l -51.4845,-88.576165 c -3.08902,-5.63218 -10.03812,-7.934609 -15.70134,-5.630859 L 369.65114,105.23946 C 356.26533,95.255595 342.36559,86.551575 326.14817,80.151575 Z m -67.20494,77.322264 a 252.08025,241.3585 0 0 0 -138.90689,53.27539 231.3318,221.49254 0 0 0 -54.044399,57.10937 l 0.05922,0.0449 c -1.02945,8.70417 -1.80148,17.15158 -1.80148,25.59961 0,8.44775 0.76818,16.64 1.80148,24.83203 L 6.6882938,324.88789 c -4.8909009,3.84025 -6.43591686,10.7528 -3.0890699,16.38477 l 8.3158451,14.30469 0.813818,0.73242 a 94.311161,90.299815 0 0 0 0.265541,1.12695 l 25.396473,43.69336 c 6.39e-4,6.4e-4 0.0013,10e-4 0.0019,0.002 12.853691,12.87502 29.274275,22.24036 48.038189,28.03711 l 48.45274,-19.54492 c 5.58959,4.27595 11.27008,8.28437 17.17041,11.96875 11.37625,-30.10158 24.5279,-64.75755 37.71837,-99.49219 A 90.096967,89.59994 0 0 1 175.65105,304.7024 504.9689,483.49102 0 0 0 99.091019,320.83326 l 33.681751,-45.40625 h 31.20782 a 90.096967,89.59994 0 0 1 -1.80912,-17.86719 90.096967,89.59994 0 0 1 85.86162,-89.50195 c 4.47794,-11.90315 8.13628,-21.66524 10.71336,-28.59765 2.15572,-5.93399 4.44462,-11.86671 6.60034,-17.92969 z m 34.89484,1.67578 -19.24317,46.41601 a 90.096967,89.59994 0 0 1 72.81761,87.9375 90.096967,89.59994 0 0 1 -1.78237,17.73828 h 29.04528 c 0.94314,-2.58 1.88696,-5.28914 2.69553,-7.86914 13.47302,-41.53791 8.75662,-79.46446 -13.47384,-106.9414 a 109.13149,104.48979 0 0 0 -70.05904,-37.28125 z m 96.06301,166.92578 A 279.16103,267.28745 0 0 1 296.73992,398.49141 273.63709,261.99846 0 0 1 180.6333,450.95429 l 7.28043,51.85352 c 1.02945,6.14397 6.43508,10.75195 12.87017,10.75195 h 102.969 c 6.4359,0 11.84051,-4.60748 12.87016,-10.75195 l 9.52511,-67.83984 c 16.21736,-6.65583 30.11906,-15.1038 43.50488,-25.34375 l 64.09677,25.85547 c 5.66338,2.04833 12.6142,-6.8e-4 15.70325,-5.63282 l 51.48259,-88.57421 c 3.08905,-5.63217 1.80183,-12.54483 -3.08907,-16.38477 l -44.42186,-34.75585 h -11.7163 z m -21.4229,1.03125 c -9.65035,0.26399 -18.99038,0.57727 -28.02706,0.93164 a 90.096967,89.59994 0 0 1 -83.13552,55.06445 90.096967,89.59994 0 0 1 -50.08229,-15.11914 l -39.63829,95.61327 c 3.52371,1.87027 7.14379,3.62591 10.88339,5.25586 a 255.98743,245.0995 0 0 0 111.31731,-49.38085 264.47543,253.22648 0 0 0 78.68246,-92.36523 z" /></g><path
       id="path1-8"
       style="display:none;fill:#0476b5;fill-opacity:1;stroke-width:24.2243"
       d="M 52.244911,1.5597806 C 24.25677,1.5597806 1.8149374,22.27197 1.8149374,48.104701 V 346.50508 l 10.9139496,9.80469 a 94.311159,90.299816 0 0 0 22.767802,41.79492 c 25.19447,27.47695 65.748951,40.24786 111.153031,37.79687 14.55088,-38.57093 32.87476,-86.81566 50.65921,-133.64257 a 504.96889,483.49102 0 0 0 -98.217901,18.57422 l 33.681751,-45.40625 h 74.64011 c 16.46636,-43.35664 31.65058,-83.50615 41.97085,-110.95898 H 228.746 V 124.67696 A 252.08025,241.35851 0 0 0 114.98914,174.80587 231.3318,221.49255 0 0 0 52.069157,246.65938 H 25.123374 A 252.08025,241.35851 0 0 1 102.8621,159.71407 271.07721,259.54747 0 0 1 228.746,105.27071 V 36.467982 l 50.20455,46.337889 C 284.58251,66.553686 289.73884,51.31571 294.01191,38.526576 L 253.96099,1.5597806 Z M 1.8149374,346.50508 v 73.96289 a 50.429183,46.545451 0 0 0 50.4299736,46.54687 h 82.153599 l 4.16843,-11.24609 h -2.02118 A 137.15537,131.32174 0 0 1 25.526462,409.45625 116.81111,111.84277 0 0 1 1.8149374,346.50508 Z M 315.34121,58.214075 297.99886,100.3879 l 6.44559,5.94922 a 126.24222,120.87275 0 0 1 70.0342,42.54101 c 19.29183,23.65463 27.72595,53.57302 24.93416,86.53906 a 176.50215,162.90908 0 0 1 5.83619,0.73243 v -94.95313 z m -43.6558,106.253905 -45.94825,110.83007 h 37.20448 a 176.50215,162.90908 0 0 1 116.36834,-41.00976 c 2.42508,-26.51397 -3.44874,-50.50127 -17.41303,-69.82031 z m 113.16847,125.66406 a 279.16103,267.28746 0 0 1 -88.11396,108.35937 273.63709,261.99847 0 0 1 -11.01902,8.06054 c 0.0784,0.75374 0.16707,1.51338 0.26363,2.28125 l -26.728,19.08203 c -2.26855,1.86181 -3.02547,4.88727 -1.51301,7.44727 l 25.21308,40.26367 c 1.51322,3.02544 4.7913,3.02539 7.81723,3.02539 l 31.26705,-11.63672 c 6.55582,4.1891 13.61577,8.14476 21.43245,10.9375 l 4.7893,30.7207 c 0.50526,2.79274 3.02623,4.88672 6.55639,4.88672 H 405.249 c 2.77354,0 5.54591,-2.09398 6.05014,-4.88672 l 4.79121,-30.7207 c 7.56454,-3.02547 14.37233,-6.7484 21.18029,-10.9375 l 31.01487,11.63672 c 3.27803,0 6.55458,5e-5 8.31966,-3.02539 l 25.21499,-40.26367 c 1.51322,-2.56 0.75554,-5.58546 -1.51301,-7.44727 L 473.32698,408.8332 c 0.50526,-3.95637 1.00867,-7.68035 1.00867,-11.63672 0,-3.95636 -0.25849,-7.68035 -1.00867,-11.63671 l 26.728,-19.08399 c 2.26854,-1.86182 3.02545,-4.88726 1.51301,-7.44726 L 476.35301,318.7668 c -1.51322,-3.02544 -4.78947,-3.02539 -8.0675,-3.02539 l -31.01487,11.63672 c -6.80796,-4.18907 -13.61581,-8.14477 -21.43246,-10.9375 l -4.10347,-26.30859 z m -21.4229,1.03125 c -5.46352,0.14946 -10.82717,0.31494 -16.09297,0.49414 h -0.002 l -3.86277,24.7832 c -7.56454,3.02546 -14.87663,6.74843 -21.43245,10.9375 l -31.26705,-11.63672 c -2.77355,0 -6.05215,-5e-5 -7.81723,3.02539 l -25.21308,40.26172 c -1.51322,2.56 -1.00817,5.58544 1.51301,7.44726 l 24.71447,17.64649 a 255.98743,245.0995 0 0 0 0.77752,-0.59375 264.47543,253.22648 0 0 0 78.68246,-92.36523 z m -123.51504,6.96679 c -8.68356,0.78737 -16.90672,1.60877 -24.68773,2.45117 L 159.4492,435.12812 a 255.98743,245.0995 0 0 0 46.64935,-10.4707 176.50215,162.90908 0 0 1 -2.56754,-27.46094 176.50215,162.90908 0 0 1 36.38493,-99.0664 z m 140.11807,64.15625 c 20.92809,0 37.82152,15.59379 37.82152,34.91015 0,19.31637 -16.89343,34.90821 -37.82152,34.90821 -21.18018,0 -37.82153,-15.59184 -37.82153,-34.90821 0,-19.31636 16.89346,-34.91015 37.82153,-34.91015 z m -169.23595,80.94726 a 273.63709,261.99847 0 0 1 -60.106,12.01758 l -4.881,11.76367 h 74.86553 a 176.50215,162.90908 0 0 1 -9.87853,-23.78125 z" /></g><g
     id="layer3"
     style="display:none"><path
       d="M 53.683097,71.437499 64.354633,96.572928 53.683097,121.70833 h 10.671536 l 5.335758,-12.5677 5.335758,12.5677 H 85.697678 L 75.026149,96.572928 85.697678,71.437499 H 75.026149 L 69.690391,84.005204 64.354633,71.437499 Z"
       id="path1-5"
       style="stroke-width:5.17911" /><path
       d="m 90.839909,71.437499 v 10.054174 h 10.671531 v 40.216657 h 10.67151 V 81.491673 h 10.67154 V 71.437499 Z"
       id="path1-1"
       style="stroke-width:5.17911" /><path
       d="M 13.854049,71.437499 V 121.70833 H 45.86863 V 111.65418 H 24.525583 V 101.6 H 45.86863 V 91.545829 H 24.525583 V 81.491673 H 45.86863 V 71.437499 Z"
       id="path1-22"
       style="stroke-width:5.17912" /><path
       d="m 68.747796,46.377163 a 8.8061633,8.5658798 0 0 1 -8.806168,-8.565872 8.8061633,8.5658798 0 0 1 8.806168,-8.565884 8.8061633,8.5658798 0 0 1 8.806156,8.565884 8.8061633,8.5658798 0 0 1 -8.806156,8.565872 m 18.694223,-6.191899 c 0.100619,-0.783197 0.176116,-1.566339 0.176116,-2.373973 0,-0.807617 -0.07512,-1.615281 -0.176116,-2.447401 l 5.30886,-3.989245 c 0.478041,-0.367132 0.603852,-1.027905 0.301926,-1.566338 l -5.032098,-8.46798 c -0.301924,-0.538444 -0.981262,-0.758686 -1.53479,-0.538444 l -6.264959,2.447392 C 78.912616,22.294804 77.553952,21.462693 75.968845,20.850844 L 75.03787,14.365257 C 74.937251,13.777881 74.408819,13.337351 73.779843,13.337351 H 63.715659 c -0.62905,0 -1.157377,0.440578 -1.258025,1.027906 l -0.930978,6.485587 c -1.585104,0.611887 -2.943768,1.44396 -4.252109,2.39845 l -6.264962,-2.447392 c -0.553545,-0.220242 -1.232866,0 -1.53479,0.538442 l -5.032086,8.467981 c -0.327126,0.538443 -0.176116,1.199225 0.301924,1.566339 l 5.308852,3.989245 c -0.100619,0.83213 -0.176117,1.639756 -0.176117,2.447399 0,0.807617 0.07512,1.590806 0.176117,2.373975 l -5.308861,4.062671 c -0.478041,0.367132 -0.62905,1.027906 -0.301926,1.56633 l 5.032088,8.467991 c 0.301925,0.538441 0.981262,0.734169 1.534789,0.538441 l 6.264961,-2.471866 c 1.308343,0.978954 2.667007,1.811065 4.25211,2.422914 l 0.930978,6.485597 c 0.100619,0.587373 0.629052,1.027906 1.258026,1.027906 h 10.064231 c 0.629051,0 1.157388,-0.440485 1.258026,-1.027906 l 0.930978,-6.485597 c 1.585103,-0.636306 2.943768,-1.44396 4.25211,-2.422914 l 6.264962,2.471866 c 0.553545,0.195823 1.232864,0 1.53479,-0.538441 l 5.032086,-8.467991 c 0.301925,-0.538443 0.176116,-1.199225 -0.301926,-1.56633 z"
       id="path1-9"
       style="stroke-width:2.4815" /></g></svg>
