<?xml version="1.0" encoding="UTF-8" standalone="no"?>
<!-- Created with Inkscape (http://www.inkscape.org/) -->

<svg
   width="512"
   height="512"
   viewBox="0 0 135.46666 135.46667"
   version="1.1"
   id="svg1"
   xml:space="preserve"
   xmlns="http://www.w3.org/2000/svg"
   xmlns:svg="http://www.w3.org/2000/svg"><defs
     id="defs1"><style
       id="style1">.cls-1{fill:#fff;}</style><style
       id="style1-2">.cls-1{fill:#fff;}</style></defs><g
     id="g16"
     transform="matrix(0.27050469,0,0,0.26458334,-0.49094907,-0.41269196)"
     style="display:inline"><g
       id="g19"><path
         id="path16"
         style="display:inline;fill:#6ba439;stroke-width:0.988994"
         d="m 250.59491,161.24532 a 92.671677,96.669426 0 0 0 -91.19156,96.65625 92.671677,96.669426 0 0 0 1.53594,17.52539 h 46.4736 c 17.12316,-45.08601 32.85942,-86.70261 43.18202,-114.18164 z m 21.48594,2.26563 -46.34369,111.7871 h 117.49737 a 92.671677,96.669426 0 0 0 1.51302,-17.39648 92.671677,96.669426 0 0 0 -72.6667,-94.39062 z m 66.72353,128.45312 c -49.91136,1.88243 -90.70018,5.05787 -123.57617,8.61718 l -15.40523,37.15821 a 92.671677,96.669426 0 0 0 52.25247,16.83203 92.671677,96.669426 0 0 0 86.72893,-62.60742 z m -141.49545,10.29492 a 504.9689,483.49102 0 0 0 -26.00015,3.04297 92.671677,96.669426 0 0 0 16.42346,22.17187 c 3.19271,-8.40797 6.39379,-16.83418 9.57669,-25.21484 z" /><path
         id="path14"
         style="display:inline;fill:#6ba439;stroke-width:25.6711"
         d="m 200.7839,1.5597806 c -6.43589,0 -11.84044,4.6084453 -12.87017,10.7519524 l -9.52511,67.839842 c -16.21742,6.4004 -30.1191,15.10382 -43.50488,25.087885 L 70.786972,79.639856 c -5.66339,-2.30375 -12.61423,6.52e-4 -15.70325,5.632812 L 3.5992239,173.84688 c -3.34687496,5.63217 -1.801803,12.54472 3.0890699,16.38477 l 36.2378272,27.83984 a 252.08025,241.3585 0 0 1 59.935979,-58.35742 271.07722,259.54747 0 0 1 150.09021,-57.27734 181.75107,174.02064 0 0 1 19.13237,0 C 289.96716,51.815427 304.9815,5.2524787 306.10265,1.768765 305.33908,1.6315649 304.55299,1.5597806 303.75099,1.5597806 Z M 321.10097,44.208216 296.2012,104.759 a 126.24222,120.87275 0 0 1 78.27745,44.11913 c 26.40705,32.37894 32.46938,76.49676 17.24492,124.09766 l -0.80809,2.32226 53.40442,0.2461 c 0.61076,-5.92571 1.0125,-11.88835 1.0125,-17.98438 0,-8.44775 -0.76818,-16.89555 -1.80148,-25.59961 l 54.31567,-41.72851 c 4.89091,-3.84022 6.17812,-10.75271 3.08907,-16.38477 l -51.4845,-88.576165 c -3.08902,-5.63218 -10.03812,-7.934609 -15.70134,-5.630859 L 369.65114,105.23946 C 356.26533,95.255595 342.36559,86.551575 326.14817,80.151575 Z m -67.20494,77.322264 a 252.08025,241.3585 0 0 0 -138.90689,53.27539 231.3318,221.49254 0 0 0 -54.044399,57.10937 l 0.05922,0.0449 c -1.02945,8.70417 -1.80148,17.15158 -1.80148,25.59961 0,8.44775 0.76818,16.64 1.80148,24.83203 L 6.6882938,324.88789 c -4.8909009,3.84025 -6.43591686,10.7528 -3.0890699,16.38477 l 8.3158451,14.30469 0.813818,0.73242 a 94.311161,90.299815 0 0 0 0.265541,1.12695 l 25.396473,43.69336 c 6.39e-4,6.4e-4 0.0013,10e-4 0.0019,0.002 12.853691,12.87502 29.274275,22.24036 48.038189,28.03711 l 48.45274,-19.54492 c 5.58959,4.27595 11.27008,8.28437 17.17041,11.96875 11.37625,-30.10158 24.5279,-64.75755 37.71837,-99.49219 A 90.096967,89.59994 0 0 1 175.65105,304.7024 504.9689,483.49102 0 0 0 99.091019,320.83326 l 33.681751,-45.40625 h 31.20782 a 90.096967,89.59994 0 0 1 -1.80912,-17.86719 90.096967,89.59994 0 0 1 85.86162,-89.50195 c 4.47794,-11.90315 8.13628,-21.66524 10.71336,-28.59765 2.15572,-5.93399 4.44462,-11.86671 6.60034,-17.92969 z m 34.89484,1.67578 -19.24317,46.41601 a 90.096967,89.59994 0 0 1 72.81761,87.9375 90.096967,89.59994 0 0 1 -1.78237,17.73828 h 29.04528 c 0.94314,-2.58 1.88696,-5.28914 2.69553,-7.86914 13.47302,-41.53791 8.75662,-79.46446 -13.47384,-106.9414 a 109.13149,104.48979 0 0 0 -70.05904,-37.28125 z m 96.06301,166.92578 A 279.16103,267.28745 0 0 1 296.73992,398.49141 273.63709,261.99846 0 0 1 180.6333,450.95429 l 7.28043,51.85352 c 1.02945,6.14397 6.43508,10.75195 12.87017,10.75195 h 102.969 c 6.4359,0 11.84051,-4.60748 12.87016,-10.75195 l 9.52511,-67.83984 c 16.21736,-6.65583 30.11906,-15.1038 43.50488,-25.34375 l 64.09677,25.85547 c 5.66338,2.04833 12.6142,-6.8e-4 15.70325,-5.63282 l 51.48259,-88.57421 c 3.08905,-5.63217 1.80183,-12.54483 -3.08907,-16.38477 l -44.42186,-34.75585 h -11.7163 z m -21.4229,1.03125 c -9.65035,0.26399 -18.99038,0.57727 -28.02706,0.93164 a 90.096967,89.59994 0 0 1 -83.13552,55.06445 90.096967,89.59994 0 0 1 -50.08229,-15.11914 l -39.63829,95.61327 c 3.52371,1.87027 7.14379,3.62591 10.88339,5.25586 a 255.98743,245.0995 0 0 0 111.31731,-49.38085 264.47543,253.22648 0 0 0 78.68246,-92.36523 z" /></g></g></svg>
