<?xml version="1.0" encoding="UTF-8" standalone="no"?>
<!-- Created with Inkscape (http://www.inkscape.org/) -->

<svg
   width="512"
   height="512"
   viewBox="0 0 135.46666 135.46667"
   version="1.1"
   id="svg1"
   xml:space="preserve"
   xmlns="http://www.w3.org/2000/svg"
   xmlns:svg="http://www.w3.org/2000/svg"><defs
     id="defs1"><style
       id="style1">.cls-1{fill:#fff;}</style><style
       id="style1-2">.cls-1{fill:#fff;}</style></defs><g
     id="g16"
     transform="matrix(0.27050469,0,0,0.26458334,-0.49094907,-0.41269196)"
     style="display:inline"><path
       id="path13"
       style="display:inline;fill:#6ba439;stroke-width:25.3183"
       d="m 152.05224,1.5597806 c -42.56744,0 -75.117694,33.2807514 -75.117694,76.8007784 V 180.20821 a 252.08025,241.3585 0 0 1 25.927554,-20.49414 271.07722,259.54747 0 0 1 150.09021,-57.27734 181.75107,174.02064 0 0 1 19.13237,0 C 290.67743,49.804834 306.17143,1.5597806 306.17143,1.5597806 Z m 186.58785,0 L 296.2012,104.759 a 126.24222,120.87275 0 0 1 78.27745,44.11913 c 26.40705,32.37894 32.46938,76.49676 17.24492,124.09766 l -0.80809,2.32226 11.53291,0.0527 V 78.360559 c 0,-15.360004 10.01726,-25.601562 25.04115,-25.601562 15.02362,0 25.03923,10.241558 25.03923,25.601562 v 25.599611 h 50.07846 V 78.360559 c 0,-43.520027 -32.55051,-76.8007784 -75.11769,-76.8007784 z M 253.89603,121.53048 A 252.08025,241.3585 0 0 0 114.98914,174.80587 231.3318,221.49254 0 0 0 76.934546,210.50509 V 359.96016 H 175.4008 c 7.19397,-18.95986 14.59675,-38.45013 21.90813,-57.70117 a 504.9689,483.49102 0 0 0 -98.217901,18.57422 l 33.681751,-45.40625 h 74.64011 c 22.63461,-59.59788 42.84556,-113.13384 51.33357,-135.96679 2.15572,-5.93399 4.44462,-11.86671 6.60034,-17.92969 z m 34.89484,1.67578 -63.05371,152.09179 h 143.89106 c 0.94314,-2.58 1.88696,-5.28914 2.69553,-7.86914 13.47302,-41.53791 8.75662,-79.46446 -13.47384,-106.9414 a 109.13149,104.48979 0 0 0 -70.05904,-37.28125 z m 96.06301,166.92578 a 279.16103,267.28745 0 0 1 -45.33311,69.82812 h 12.84916 v 25.59961 c 0,15.36 10.01535,25.5996 25.03923,25.5996 h 25.03923 V 290.13204 Z m -21.4229,1.03125 c -61.30225,1.67699 -110.07413,5.28997 -148.20277,9.41796 l -24.61704,59.37891 h 122.21981 a 264.47543,253.22648 0 0 0 50.6,-68.79687 z M 1.8149374,411.15937 v 25.60157 c 0,43.52002 32.5521746,76.79882 75.1196086,76.79882 h 40.209484 l 21.42291,-57.79101 h -2.02118 A 137.15537,131.32174 0 0 1 27.06049,411.15937 Z M 117.14403,513.55976 h 210.18666 c 32.55145,0 60.09487,-20.4792 70.11062,-51.19922 h -20.03215 c -32.55167,0 -60.09488,-20.48116 -70.11062,-51.20117 h -28.43778 a 273.63709,261.99846 0 0 1 -128.1687,44.0918 l -20.07418,48.375 z M 50.057536,411.15937 c 24.956886,18.42064 59.122614,26.76486 96.592184,24.74219 2.97101,-7.87544 6.09858,-16.15448 9.34744,-24.74219 H 76.934546 Z m 119.327504,0 -9.93584,23.96875 a 255.98743,245.0995 0 0 0 80.41707,-23.96875 z" /></g></svg>
